<mxfile host="app.diagrams.net" agent="Mozilla/5.0 (Windows NT 10.0; Win64; x64) AppleWebKit/537.36 (KHTML, like Gecko) Chrome/135.0.0.0 Safari/537.36 Edg/135.0.0.0" version="26.2.9">
  <diagram name="第 1 页" id="xRLoVCTtJmZEOT5wQPC5">
    <mxGraphModel dx="2008" dy="767" grid="1" gridSize="10" guides="1" tooltips="1" connect="1" arrows="1" fold="1" page="1" pageScale="1" pageWidth="827" pageHeight="1169" math="0" shadow="0">
      <root>
        <mxCell id="0" />
        <mxCell id="1" parent="0" />
        <mxCell id="csJLymG2KuMe5z6JLZhE-6" value="" style="edgeStyle=orthogonalEdgeStyle;rounded=0;orthogonalLoop=1;jettySize=auto;html=1;" edge="1" parent="1" source="csJLymG2KuMe5z6JLZhE-1" target="csJLymG2KuMe5z6JLZhE-5">
          <mxGeometry relative="1" as="geometry" />
        </mxCell>
        <mxCell id="csJLymG2KuMe5z6JLZhE-1" value="&lt;font style=&quot;font-size: 18px;&quot;&gt;用户&lt;/font&gt;" style="rounded=0;whiteSpace=wrap;html=1;" vertex="1" parent="1">
          <mxGeometry x="170" y="150" width="110" height="50" as="geometry" />
        </mxCell>
        <mxCell id="csJLymG2KuMe5z6JLZhE-3" value="" style="edgeStyle=orthogonalEdgeStyle;rounded=0;orthogonalLoop=1;jettySize=auto;html=1;" edge="1" parent="1" source="csJLymG2KuMe5z6JLZhE-2" target="csJLymG2KuMe5z6JLZhE-1">
          <mxGeometry relative="1" as="geometry" />
        </mxCell>
        <mxCell id="csJLymG2KuMe5z6JLZhE-2" value="&lt;font style=&quot;font-size: 18px;&quot;&gt;管理员&lt;/font&gt;" style="rounded=0;whiteSpace=wrap;html=1;" vertex="1" parent="1">
          <mxGeometry x="170" y="40" width="110" height="50" as="geometry" />
        </mxCell>
        <mxCell id="csJLymG2KuMe5z6JLZhE-4" value="&lt;font style=&quot;font-size: 18px;&quot;&gt;创建&lt;/font&gt;" style="text;html=1;align=center;verticalAlign=middle;resizable=0;points=[];autosize=1;strokeColor=none;fillColor=none;" vertex="1" parent="1">
          <mxGeometry x="170" y="95" width="60" height="40" as="geometry" />
        </mxCell>
        <mxCell id="csJLymG2KuMe5z6JLZhE-8" value="" style="edgeStyle=orthogonalEdgeStyle;rounded=0;orthogonalLoop=1;jettySize=auto;html=1;" edge="1" parent="1" source="csJLymG2KuMe5z6JLZhE-5" target="csJLymG2KuMe5z6JLZhE-7">
          <mxGeometry relative="1" as="geometry" />
        </mxCell>
        <mxCell id="csJLymG2KuMe5z6JLZhE-11" value="" style="edgeStyle=orthogonalEdgeStyle;rounded=0;orthogonalLoop=1;jettySize=auto;html=1;" edge="1" parent="1" source="csJLymG2KuMe5z6JLZhE-5" target="csJLymG2KuMe5z6JLZhE-10">
          <mxGeometry relative="1" as="geometry" />
        </mxCell>
        <mxCell id="csJLymG2KuMe5z6JLZhE-5" value="&lt;font style=&quot;font-size: 18px;&quot;&gt;登录&lt;/font&gt;" style="rhombus;whiteSpace=wrap;html=1;" vertex="1" parent="1">
          <mxGeometry x="170" y="248" width="110" height="80" as="geometry" />
        </mxCell>
        <mxCell id="csJLymG2KuMe5z6JLZhE-7" value="&lt;font style=&quot;font-size: 18px;&quot;&gt;聊天主界面及&lt;/font&gt;&lt;div&gt;&lt;font style=&quot;font-size: 18px;&quot;&gt;用户模型管理页面&lt;/font&gt;&lt;/div&gt;" style="rounded=0;whiteSpace=wrap;html=1;" vertex="1" parent="1">
          <mxGeometry x="360" y="253" width="150" height="70" as="geometry" />
        </mxCell>
        <mxCell id="csJLymG2KuMe5z6JLZhE-9" value="&lt;font style=&quot;font-size: 18px;&quot;&gt;是(管理员)&lt;/font&gt;" style="text;html=1;align=center;verticalAlign=middle;resizable=0;points=[];autosize=1;strokeColor=none;fillColor=none;" vertex="1" parent="1">
          <mxGeometry x="260" y="249" width="110" height="40" as="geometry" />
        </mxCell>
        <mxCell id="csJLymG2KuMe5z6JLZhE-14" value="" style="edgeStyle=orthogonalEdgeStyle;rounded=0;orthogonalLoop=1;jettySize=auto;html=1;" edge="1" parent="1" source="csJLymG2KuMe5z6JLZhE-10" target="csJLymG2KuMe5z6JLZhE-13">
          <mxGeometry relative="1" as="geometry" />
        </mxCell>
        <mxCell id="csJLymG2KuMe5z6JLZhE-10" value="&lt;font style=&quot;font-size: 18px;&quot;&gt;聊天主界面&lt;/font&gt;" style="rounded=0;whiteSpace=wrap;html=1;" vertex="1" parent="1">
          <mxGeometry x="165" y="378" width="120" height="60" as="geometry" />
        </mxCell>
        <mxCell id="csJLymG2KuMe5z6JLZhE-12" value="&lt;font style=&quot;font-size: 18px;&quot;&gt;否&lt;/font&gt;" style="text;html=1;align=center;verticalAlign=middle;resizable=0;points=[];autosize=1;strokeColor=none;fillColor=none;" vertex="1" parent="1">
          <mxGeometry x="180" y="331" width="40" height="40" as="geometry" />
        </mxCell>
        <mxCell id="csJLymG2KuMe5z6JLZhE-19" value="" style="edgeStyle=orthogonalEdgeStyle;rounded=0;orthogonalLoop=1;jettySize=auto;html=1;" edge="1" parent="1" source="csJLymG2KuMe5z6JLZhE-13" target="csJLymG2KuMe5z6JLZhE-18">
          <mxGeometry relative="1" as="geometry" />
        </mxCell>
        <mxCell id="csJLymG2KuMe5z6JLZhE-13" value="&lt;font style=&quot;font-size: 18px;&quot;&gt;模型回答&lt;/font&gt;" style="rounded=0;whiteSpace=wrap;html=1;" vertex="1" parent="1">
          <mxGeometry x="165" y="500" width="120" height="60" as="geometry" />
        </mxCell>
        <mxCell id="csJLymG2KuMe5z6JLZhE-16" value="" style="endArrow=none;html=1;rounded=0;exitX=0.5;exitY=1;exitDx=0;exitDy=0;startFill=0;" edge="1" parent="1">
          <mxGeometry width="50" height="50" relative="1" as="geometry">
            <mxPoint x="431" y="323" as="sourcePoint" />
            <mxPoint x="226" y="470" as="targetPoint" />
            <Array as="points">
              <mxPoint x="431" y="470" />
            </Array>
          </mxGeometry>
        </mxCell>
        <mxCell id="csJLymG2KuMe5z6JLZhE-17" value="&lt;font style=&quot;font-size: 18px;&quot;&gt;根据不同部门角色&lt;/font&gt;" style="text;html=1;align=center;verticalAlign=middle;resizable=0;points=[];autosize=1;strokeColor=none;fillColor=none;" vertex="1" parent="1">
          <mxGeometry x="268" y="438" width="170" height="40" as="geometry" />
        </mxCell>
        <mxCell id="csJLymG2KuMe5z6JLZhE-22" value="" style="edgeStyle=orthogonalEdgeStyle;rounded=0;orthogonalLoop=1;jettySize=auto;html=1;entryX=0;entryY=0.5;entryDx=0;entryDy=0;" edge="1" parent="1" source="csJLymG2KuMe5z6JLZhE-18" target="csJLymG2KuMe5z6JLZhE-20">
          <mxGeometry relative="1" as="geometry">
            <mxPoint x="375" y="640" as="targetPoint" />
          </mxGeometry>
        </mxCell>
        <mxCell id="csJLymG2KuMe5z6JLZhE-24" value="" style="edgeStyle=orthogonalEdgeStyle;rounded=0;orthogonalLoop=1;jettySize=auto;html=1;" edge="1" parent="1" source="csJLymG2KuMe5z6JLZhE-18" target="csJLymG2KuMe5z6JLZhE-23">
          <mxGeometry relative="1" as="geometry" />
        </mxCell>
        <mxCell id="csJLymG2KuMe5z6JLZhE-18" value="&lt;font style=&quot;font-size: 18px;&quot;&gt;是否满意&lt;/font&gt;" style="rhombus;whiteSpace=wrap;html=1;" vertex="1" parent="1">
          <mxGeometry x="170" y="600" width="110" height="80" as="geometry" />
        </mxCell>
        <mxCell id="csJLymG2KuMe5z6JLZhE-28" value="" style="edgeStyle=orthogonalEdgeStyle;rounded=0;orthogonalLoop=1;jettySize=auto;html=1;" edge="1" parent="1" source="csJLymG2KuMe5z6JLZhE-20" target="csJLymG2KuMe5z6JLZhE-27">
          <mxGeometry relative="1" as="geometry" />
        </mxCell>
        <mxCell id="csJLymG2KuMe5z6JLZhE-20" value="&lt;font style=&quot;font-size: 18px;&quot;&gt;保存生成内容&lt;/font&gt;" style="rounded=0;whiteSpace=wrap;html=1;" vertex="1" parent="1">
          <mxGeometry x="400" y="610" width="120" height="60" as="geometry" />
        </mxCell>
        <mxCell id="csJLymG2KuMe5z6JLZhE-23" value="&lt;font style=&quot;font-size: 18px;&quot;&gt;不保存&lt;/font&gt;" style="rounded=0;whiteSpace=wrap;html=1;" vertex="1" parent="1">
          <mxGeometry x="165" y="720" width="120" height="60" as="geometry" />
        </mxCell>
        <mxCell id="csJLymG2KuMe5z6JLZhE-25" value="&lt;font style=&quot;font-size: 18px;&quot;&gt;否&lt;/font&gt;" style="text;html=1;align=center;verticalAlign=middle;resizable=0;points=[];autosize=1;strokeColor=none;fillColor=none;" vertex="1" parent="1">
          <mxGeometry x="180" y="673" width="40" height="40" as="geometry" />
        </mxCell>
        <mxCell id="csJLymG2KuMe5z6JLZhE-26" value="&lt;font style=&quot;font-size: 18px;&quot;&gt;是&lt;/font&gt;" style="text;html=1;align=center;verticalAlign=middle;resizable=0;points=[];autosize=1;strokeColor=none;fillColor=none;" vertex="1" parent="1">
          <mxGeometry x="310" y="605" width="40" height="40" as="geometry" />
        </mxCell>
        <mxCell id="csJLymG2KuMe5z6JLZhE-27" value="&lt;font style=&quot;font-size: 18px;&quot;&gt;导出生成内容&lt;/font&gt;" style="rounded=0;whiteSpace=wrap;html=1;" vertex="1" parent="1">
          <mxGeometry x="400" y="720" width="120" height="60" as="geometry" />
        </mxCell>
      </root>
    </mxGraphModel>
  </diagram>
</mxfile>
